<svg viewBox="0 0 68 64.98" xmlns="http://www.w3.org/2000/svg" xmlns:xlink="http://www.w3.org/1999/xlink" width="68.000000" height="64.979980" fill="none" customFrame="#000000">
	<defs>
		<clipPath id="clipPath_18">
			<rect width="68.000000" height="64.980087" x="0.000000" y="0.000000" fill="rgb(255,255,255)" />
		</clipPath>
		<clipPath id="clipPath_19">
			<rect width="68.000000" height="64.980087" x="0.000000" y="0.000000" fill="rgb(255,255,255)" />
		</clipPath>
		<clipPath id="clipPath_20">
			<rect width="68.000000" height="64.980087" x="0.000000" y="0.000000" fill="rgb(255,255,255)" />
		</clipPath>
	</defs>
	<rect id="Icons/coding" width="68.000000" height="64.980087" x="0.000000" y="0.000000" fill="rgb(255,255,255)" fill-opacity="0" />
	<g id="Icons/coding" customFrame="url(#clipPath_18)">
		<rect id="Icons/coding" width="68.000000" height="64.980087" x="0.000000" y="0.000000" fill="rgb(255,255,255)" fill-opacity="0" />
		<g id="Icons/coding" customFrame="url(#clipPath_19)">
			<rect id="Icons/coding" width="68.000000" height="64.980087" x="0.000000" y="0.000000" fill="rgb(255,255,255)" fill-opacity="0" />
			<g id="Icons/coding" clip-path="url(#clipPath_20)" customFrame="url(#clipPath_20)">
				<rect id="Icons/coding" width="68.000000" height="64.980087" x="0.000000" y="0.000000" fill="rgb(255,255,255)" fill-opacity="0" />
				<g id="Group">
					<path id="Vector" d="M63.2188 7.10693L4.78125 7.10693C3.79531 7.10798 2.85007 7.48271 2.1529 8.14891C1.45574 8.81511 1.06359 9.71838 1.0625 10.6605L1.0625 46.1965C1.06359 47.1387 1.45574 48.0419 2.1529 48.7081C2.85007 49.3743 3.79531 49.7491 4.78125 49.7501L26.0552 49.7501L24.7802 52.7961L19.125 52.7961C18.8432 52.7961 18.573 52.903 18.3737 53.0934C18.1744 53.2838 18.0625 53.5421 18.0625 53.8114L18.0625 55.842L11.6875 55.842C11.4057 55.842 11.1355 55.949 10.9362 56.1394C10.7369 56.3298 10.625 56.588 10.625 56.8573C10.625 57.1266 10.7369 57.3848 10.9362 57.5753C11.1355 57.7657 11.4057 57.8726 11.6875 57.8726L56.3125 57.8726C56.5943 57.8726 56.8645 57.7657 57.0638 57.5753C57.2631 57.3848 57.375 57.1266 57.375 56.8573C57.375 56.588 57.2631 56.3298 57.0638 56.1394C56.8645 55.949 56.5943 55.842 56.3125 55.842L49.9375 55.842L49.9375 53.8114C49.9375 53.5421 49.8256 53.2838 49.6263 53.0934C49.427 52.903 49.1568 52.7961 48.875 52.7961L43.2198 52.7961L41.9448 49.7501L63.2188 49.7501C64.2047 49.7491 65.1499 49.3743 65.8471 48.7081C66.5443 48.0419 66.9364 47.1387 66.9375 46.1965L66.9375 10.6605C66.9364 9.71838 66.5443 8.81511 65.8471 8.14891C65.1499 7.48271 64.2047 7.10798 63.2188 7.10693ZM47.8125 54.8267L47.8125 55.842L20.1875 55.842L20.1875 54.8267L47.8125 54.8267ZM27.0698 52.7961L28.3448 49.7501L39.6552 49.7501L40.9302 52.7961L27.0698 52.7961ZM64.8125 46.1965C64.8121 46.6003 64.6441 46.9875 64.3453 47.2731C64.0465 47.5586 63.6413 47.7192 63.2188 47.7195L4.78125 47.7195C4.35867 47.7192 3.9535 47.5586 3.65469 47.2731C3.35588 46.9875 3.18785 46.6003 3.1875 46.1965L3.1875 43.6582L64.8125 43.6582L64.8125 46.1965ZM64.8125 41.6276L3.1875 41.6276L3.1875 10.6605C3.18785 10.2567 3.35588 9.86954 3.65469 9.584C3.9535 9.29846 4.35867 9.1379 4.78125 9.13756L63.2188 9.13756C63.6413 9.1379 64.0465 9.29846 64.3453 9.584C64.6441 9.86954 64.8121 10.2567 64.8125 10.6605L64.8125 41.6276Z" fill="rgb(255,180,0)" fill-rule="nonzero" />
					<path id="Vector" d="M29.1671 33.3387C29.2838 33.4118 29.4144 33.4623 29.5514 33.4872C29.6885 33.5122 29.8294 33.511 29.966 33.4839C30.1026 33.4568 30.2323 33.4043 30.3477 33.3293C30.4631 33.2543 30.5618 33.1583 30.6384 33.0468L39.0056 20.863C39.1602 20.6379 39.2149 20.3633 39.1577 20.0996C39.1005 19.836 38.936 19.6048 38.7004 19.4571C38.4648 19.3093 38.1774 19.257 37.9015 19.3117C37.6256 19.3664 37.3837 19.5236 37.2291 19.7487L28.8619 31.9325C28.7853 32.0439 28.7324 32.1688 28.7063 32.2998C28.6802 32.4308 28.6813 32.5654 28.7096 32.696C28.738 32.8266 28.793 32.9505 28.8715 33.0608C28.9499 33.1711 29.0504 33.2655 29.1671 33.3387Z" fill="rgb(255,180,0)" fill-rule="nonzero" />
					<path id="Vector" d="M40.7573 33.2701C40.9738 33.4425 41.2531 33.5256 41.5337 33.5012C41.8143 33.4768 42.0733 33.3469 42.2537 33.14L47.5662 27.0482C47.7253 26.8657 47.8124 26.6357 47.8124 26.3982C47.8124 26.1607 47.7253 25.9308 47.5662 25.7483L42.2537 19.6564C42.1647 19.5531 42.0551 19.4677 41.9314 19.405C41.8077 19.3423 41.6723 19.3036 41.5328 19.2911C41.3934 19.2786 41.2528 19.2925 41.119 19.3321C40.9853 19.3718 40.861 19.4362 40.7534 19.5219C40.6459 19.6076 40.5571 19.7127 40.4921 19.8313C40.4272 19.9498 40.3875 20.0795 40.3752 20.2128C40.3629 20.3461 40.3783 20.4804 40.4205 20.608C40.4627 20.7356 40.5309 20.854 40.6212 20.9563L45.3668 26.3982L40.6212 31.8402C40.4408 32.0471 40.3538 32.3139 40.3793 32.5821C40.4049 32.8503 40.5408 33.0978 40.7573 33.2701Z" fill="rgb(255,180,0)" fill-rule="nonzero" />
					<path id="Vector" d="M25.7462 33.14C25.8352 33.2433 25.9448 33.3288 26.0685 33.3915C26.1922 33.4542 26.3276 33.4929 26.4671 33.5054C26.6065 33.5179 26.7471 33.5039 26.8809 33.4643C27.0146 33.4247 27.1389 33.3602 27.2465 33.2745C27.354 33.1889 27.4428 33.0837 27.5078 32.9652C27.5727 32.8466 27.6124 32.7169 27.6247 32.5836C27.637 32.4503 27.6216 32.316 27.5794 32.1884C27.5372 32.0609 27.469 31.9425 27.3787 31.8402L22.6331 26.3982L27.3787 20.9563C27.469 20.854 27.5372 20.7356 27.5794 20.608C27.6216 20.4804 27.637 20.3461 27.6247 20.2128C27.6124 20.0795 27.5727 19.9498 27.5078 19.8313C27.4428 19.7127 27.354 19.6076 27.2465 19.5219C27.1389 19.4362 27.0146 19.3718 26.8809 19.3321C26.7471 19.2925 26.6065 19.2786 26.4671 19.2911C26.3276 19.3036 26.1922 19.3423 26.0685 19.405C25.9448 19.4677 25.8352 19.5531 25.7462 19.6564L20.4337 25.7483C20.2746 25.9308 20.1875 26.1607 20.1875 26.3982C20.1875 26.6357 20.2746 26.8657 20.4337 27.0482L25.7462 33.14Z" fill="rgb(255,180,0)" fill-rule="nonzero" />
				</g>
			</g>
		</g>
	</g>
</svg>
